<svg width="127" height="58" viewBox="0 0 127 58" fill="none" xmlns="http://www.w3.org/2000/svg">
<path d="M19.8 6C19.4267 4.88 19 4.02667 18.52 3.44C18.04 2.8 17.4533 2.34666 16.76 2.08C16.0667 1.81333 15.16 1.68 14.04 1.68H13V0.879996H35V1.68H33.08C31.3733 1.68 30.12 1.92 29.32 2.4C28.52 2.82666 28.12 3.6 28.12 4.72C28.12 5.04 28.1467 5.41333 28.2 5.84C28.2533 6.21333 28.3333 6.61333 28.44 7.04C28.6 7.46667 28.76 7.94667 28.92 8.48L38.84 37.04C39.32 38.3733 39.7467 39.6533 40.12 40.88C40.5467 42.1067 40.9467 43.3067 41.32 44.48C41.6933 45.6533 42.0133 46.7733 42.28 47.84C42.6 48.9067 42.8933 49.9467 43.16 50.96C43.5867 49.5733 44.04 48.1067 44.52 46.56C45 44.96 45.5067 43.36 46.04 41.76C46.5733 40.1067 47.08 38.5333 47.56 37.04L56.68 9.12C56.8933 8.53333 57.0533 8.02666 57.16 7.6C57.2667 7.12 57.3467 6.66666 57.4 6.24C57.5067 5.81333 57.56 5.44 57.56 5.12C57.56 3.84 57.1333 2.96 56.28 2.48C55.4267 1.94666 54.0667 1.68 52.2 1.68H47.48V0.879996H67V1.68H64.12C63.1067 1.68 62.2533 1.86666 61.56 2.24C60.8667 2.61333 60.2533 3.25333 59.72 4.16C59.1867 5.06666 58.6533 6.29333 58.12 7.84L41.56 58H38.12L19.8 6ZM70.0244 58V57.2H71.0644C72.5044 57.2 73.7044 56.9867 74.6644 56.56C75.6777 56.1333 76.4244 55.4933 76.9044 54.64C77.3844 53.7867 77.6244 52.72 77.6244 51.44V7.12C77.6244 5.89333 77.3844 4.88 76.9044 4.08C76.4244 3.28 75.6777 2.69333 74.6644 2.32C73.7044 1.89333 72.5044 1.68 71.0644 1.68H70.0244V0.879996H110.344L110.824 14.88H110.024L109.864 12.24C109.704 9.57333 109.251 7.46666 108.504 5.92C107.758 4.37333 106.584 3.28 104.984 2.64C103.384 2 101.224 1.68 98.5044 1.68H85.7044V29.52H105.784V30.32H85.7044V51.44C85.7044 52.72 85.9444 53.7867 86.4244 54.64C86.9044 55.4933 87.6244 56.1333 88.5844 56.56C89.5977 56.9867 90.8244 57.2 92.2644 57.2H93.3044V58H70.0244Z" fill="white"/>
<rect y="22" width="127" height="18" fill="#78C2AD"/>
<path d="M16.1982 32.5156L17.873 26.8906H19.5039L17.0283 34H15.9541L16.1982 32.5156ZM14.6553 26.8906L16.3252 32.5156L16.5791 34H15.4951L13.0342 26.8906H14.6553ZM29.5645 28.7168V34H28.1533V28.7168H29.5645ZM28.0654 27.3398C28.0654 27.1348 28.137 26.9655 28.2803 26.832C28.4235 26.6986 28.6156 26.6318 28.8564 26.6318C29.0941 26.6318 29.2845 26.6986 29.4277 26.832C29.5742 26.9655 29.6475 27.1348 29.6475 27.3398C29.6475 27.5449 29.5742 27.7142 29.4277 27.8477C29.2845 27.9811 29.0941 28.0479 28.8564 28.0479C28.6156 28.0479 28.4235 27.9811 28.2803 27.8477C28.137 27.7142 28.0654 27.5449 28.0654 27.3398ZM41.3145 28.7168V29.7129H38.2383V28.7168H41.3145ZM39 27.4131H40.4062V32.4082C40.4062 32.5612 40.4258 32.6784 40.4648 32.7598C40.5072 32.8411 40.569 32.8981 40.6504 32.9307C40.7318 32.96 40.8343 32.9746 40.958 32.9746C41.0459 32.9746 41.124 32.9714 41.1924 32.9648C41.264 32.9551 41.3242 32.9453 41.373 32.9355L41.3779 33.9707C41.2575 34.0098 41.1273 34.0407 40.9873 34.0635C40.8473 34.0863 40.6927 34.0977 40.5234 34.0977C40.2142 34.0977 39.944 34.0472 39.7129 33.9463C39.485 33.8421 39.3092 33.6761 39.1855 33.4482C39.0618 33.2204 39 32.9209 39 32.5498V27.4131ZM52.9668 32.8086V30.4551C52.9668 30.2858 52.9391 30.141 52.8838 30.0205C52.8285 29.8968 52.7422 29.8008 52.625 29.7324C52.5111 29.6641 52.363 29.6299 52.1807 29.6299C52.0244 29.6299 51.8893 29.6576 51.7754 29.7129C51.6615 29.765 51.5736 29.8415 51.5117 29.9424C51.4499 30.04 51.4189 30.1556 51.4189 30.2891H50.0127C50.0127 30.0645 50.0648 29.8512 50.1689 29.6494C50.2731 29.4476 50.4245 29.2702 50.623 29.1172C50.8216 28.9609 51.0576 28.8389 51.3311 28.751C51.6077 28.6631 51.917 28.6191 52.2588 28.6191C52.6689 28.6191 53.0335 28.6875 53.3525 28.8242C53.6715 28.9609 53.9222 29.166 54.1045 29.4395C54.29 29.7129 54.3828 30.0547 54.3828 30.4648V32.7256C54.3828 33.0153 54.4007 33.2529 54.4365 33.4385C54.4723 33.6208 54.5244 33.7803 54.5928 33.917V34H53.1719C53.1035 33.8568 53.0514 33.6777 53.0156 33.4629C52.9831 33.2448 52.9668 33.0267 52.9668 32.8086ZM53.1523 30.7822L53.1621 31.5781H52.376C52.1904 31.5781 52.0293 31.5993 51.8926 31.6416C51.7559 31.6839 51.6436 31.7441 51.5557 31.8223C51.4678 31.8971 51.4027 31.985 51.3604 32.0859C51.3213 32.1868 51.3018 32.2975 51.3018 32.418C51.3018 32.5384 51.3294 32.6475 51.3848 32.7451C51.4401 32.8395 51.5199 32.9144 51.624 32.9697C51.7282 33.0218 51.8503 33.0479 51.9902 33.0479C52.2018 33.0479 52.3857 33.0055 52.542 32.9209C52.6982 32.8363 52.8187 32.7321 52.9033 32.6084C52.9912 32.4847 53.0368 32.3675 53.04 32.2568L53.4111 32.8525C53.359 32.986 53.2874 33.1243 53.1963 33.2676C53.1084 33.4108 52.9961 33.5459 52.8594 33.6729C52.7227 33.7965 52.5583 33.8991 52.3662 33.9805C52.1742 34.0586 51.9463 34.0977 51.6826 34.0977C51.3473 34.0977 51.043 34.0309 50.7695 33.8975C50.4993 33.7607 50.2845 33.5736 50.125 33.3359C49.9688 33.0951 49.8906 32.8216 49.8906 32.5156C49.8906 32.2389 49.9427 31.9932 50.0469 31.7783C50.151 31.5635 50.304 31.3828 50.5059 31.2363C50.7109 31.0866 50.9665 30.9743 51.2725 30.8994C51.5785 30.8213 51.9333 30.7822 52.3369 30.7822H53.1523ZM64.9512 26.5V34H63.54V26.5H64.9512ZM86.1562 26.8906V34H84.6914V26.8906H86.1562ZM88.9883 29.9277V31.0703H85.7559V29.9277H88.9883ZM89.3301 26.8906V28.0381H85.7559V26.8906H89.3301ZM99.5762 28.7168V34H98.165V28.7168H99.5762ZM98.0771 27.3398C98.0771 27.1348 98.1488 26.9655 98.292 26.832C98.4352 26.6986 98.6273 26.6318 98.8682 26.6318C99.1058 26.6318 99.2962 26.6986 99.4395 26.832C99.5859 26.9655 99.6592 27.1348 99.6592 27.3398C99.6592 27.5449 99.5859 27.7142 99.4395 27.8477C99.2962 27.9811 99.1058 28.0479 98.8682 28.0479C98.6273 28.0479 98.4352 27.9811 98.292 27.8477C98.1488 27.7142 98.0771 27.5449 98.0771 27.3398ZM111.326 28.7168V29.7129H108.25V28.7168H111.326ZM109.012 27.4131H110.418V32.4082C110.418 32.5612 110.438 32.6784 110.477 32.7598C110.519 32.8411 110.581 32.8981 110.662 32.9307C110.743 32.96 110.846 32.9746 110.97 32.9746C111.058 32.9746 111.136 32.9714 111.204 32.9648C111.276 32.9551 111.336 32.9453 111.385 32.9355L111.39 33.9707C111.269 34.0098 111.139 34.0407 110.999 34.0635C110.859 34.0863 110.704 34.0977 110.535 34.0977C110.226 34.0977 109.956 34.0472 109.725 33.9463C109.497 33.8421 109.321 33.6761 109.197 33.4482C109.074 33.2204 109.012 32.9209 109.012 32.5498V27.4131Z" fill="white"/>
</svg>
